<svg width="400" height="300" viewBox="0 0 400 300" xmlns="http://www.w3.org/2000/svg">
  <defs>
    <linearGradient id="studioGradient" x1="0%" y1="0%" x2="0%" y2="100%">
      <stop offset="0%" style="stop-color:#FFF8DC;stop-opacity:1" />
      <stop offset="100%" style="stop-color:#F5F5DC;stop-opacity:1" />
    </linearGradient>
  </defs>
  
  <!-- Studio Interior -->
  <rect width="400" height="300" fill="url(#studioGradient)"/>
  
  <!-- Hardwood Floor -->
  <rect y="250" width="400" height="50" fill="#DEB887"/>
  
  <!-- Large Windows -->
  <rect x="20" y="50" width="100" height="120" fill="#87CEEB" stroke="#666" stroke-width="3"/>
  <line x1="70" y1="50" x2="70" y2="170" stroke="#666" stroke-width="2"/>
  <line x1="20" y1="110" x2="120" y2="110" stroke="#666" stroke-width="2"/>
  
  <!-- City View Through Window -->
  <g opacity="0.7">
    <rect x="25" y="55" width="20" height="50" fill="#4682B4"/>
    <rect x="50" y="70" width="15" height="35" fill="#4682B4"/>
    <rect x="75" y="60" width="18" height="45" fill="#4682B4"/>
    <rect x="100" y="75" width="12" height="30" fill="#4682B4"/>
  </g>
  
  <!-- Bed Area -->
  <rect x="280" y="180" width="100" height="60" fill="#8B4513" stroke="#654321" stroke-width="2"/>
  <rect x="275" y="175" width="110" height="10" fill="#FFFFFF"/>
  <rect x="285" y="160" width="90" height="20" fill="#FFB6C1"/>
  
  <!-- Living Area -->
  <!-- Small Couch -->
  <rect x="160" y="200" width="80" height="40" fill="#4682B4" stroke="#36648B" stroke-width="2"/>
  <rect x="155" y="195" width="90" height="10" fill="#4169E1"/>
  
  <!-- Coffee Table -->
  <rect x="170" y="220" width="60" height="20" fill="#8B4513" stroke="#654321" stroke-width="2"/>
  
  <!-- Kitchen Area -->
  <rect x="20" y="200" width="80" height="30" fill="#A0522D" stroke="#8B4513" stroke-width="2"/>
  
  <!-- Mini Fridge -->
  <rect x="25" y="180" width="25" height="40" fill="#C0C0C0" stroke="#999" stroke-width="2"/>
  
  <!-- Microwave -->
  <rect x="60" y="190" width="35" height="20" fill="#2F4F4F" stroke="#1C1C1C" stroke-width="2"/>
  <rect x="65" y="195" width="25" height="10" fill="#87CEEB"/>
  
  <!-- Work Desk -->
  <rect x="300" y="120" width="80" height="40" fill="#8B4513" stroke="#654321" stroke-width="2"/>
  
  <!-- Laptop -->
  <rect x="320" y="125" width="30" height="20" fill="#2F4F4F"/>
  <rect x="322" y="127" width="26" height="16" fill="#87CEEB"/>
  
  <!-- Chair -->
  <rect x="285" y="140" width="20" height="25" fill="#4682B4"/>
  <rect x="280" y="135" width="30" height="8" fill="#4169E1"/>
  
  <!-- Art on Walls -->
  <rect x="150" y="80" width="60" height="40" fill="#FF69B4" stroke="#000" stroke-width="2"/>
  <rect x="250" y="70" width="40" height="60" fill="#32CD32" stroke="#000" stroke-width="2"/>
  
  <!-- Plants -->
  <ellipse cx="350" cy="220" rx="15" ry="20" fill="#228B22"/>
  <rect x="347" y="230" width="6" height="15" fill="#8B4513"/>
</svg>